<svg version="1.2" xmlns="http://www.w3.org/2000/svg" viewBox="0 0 1510 1511" width="1510" height="1511">
	<title>nav-main-logo-svg</title>
	<style>
		.s0 { fill: #ffffff } 
		.s1 { fill: #136ef6 } 
	</style>
	<g id="Layer">
		<path id="Layer" fill-rule="evenodd" class="s0" d="m856.7 319h60.8c7.2 0 13 5.8 13 13v837.8c0 7.3-5.8 13.1-13 13.1h-79.7c-7.2 0-13-5.8-13-13.1v-215.9c0-7.3-5.8-13.1-13-13.1h-373.7c-7.2 0-13-5.8-13-13v-60.9c0-2.9 1.5-4.4 2.9-7.3l417.1-536.3c1.4-2.9 5.8-4.3 11.6-4.3zm-281 527.6h234.6c7.3 0 13-5.8 13-13.1v-300c0-11.6-15.9-17.4-23.1-7.2l-234.6 300c-7.3 7.2-1.5 20.3 10.1 20.3z"/>
		<path id="Layer" fill-rule="evenodd" class="s1" d="m755.3 1510.4c-417.2 0-754.5-337.6-754.5-755.2 0-417.6 337.3-755.2 754.5-755.2 417.3 0 754.5 337.6 754.5 755.2 0 417.6-337.2 755.2-754.5 755.2zm647.4-755.2c0-358.3-289.4-647.9-647.4-647.9-358 0-647.3 289.6-647.3 647.9 0 358.3 289.3 647.9 647.3 647.9 358 0 647.4-289.6 647.4-647.9z"/>
	</g>
</svg>