<svg version="1.2" xmlns="http://www.w3.org/2000/svg" viewBox="0 0 1514 316" width="1514" height="316">
	<title>nav-main-logo-svg</title>
	<style>
		.s0 { fill: #ffffff } 
		.s1 { fill: #136ef6 } 
	</style>
	<g id="Layer">
		<path id="Layer" class="s0" d="m1112.4 43.9v12.1c0 4.9-2.7 7.6-6.9 7.6h-63v208.4c0 4.3-2.7 7-6.9 7h-13.6c-4.9 0-7.6-2.7-7.6-7v-208.1h-62.7c-4.8 0-7.5-3-7.5-7.6v-12.1c0-4.8 3-7.6 7.5-7.6h154.1c4.2 0 7 3.1 6.6 7.3zm-951.7 165.7v11.2c0 17-5.8 31.2-16.7 41.8-11.1 10.6-26 16.1-44.4 16.1h-81.7c-4.9 0-7.6-2.7-7.6-7v-11.8c0-4.2 3-7 7.6-7h77.1c12.1 0 21.5-2.7 27.9-8.7 6.3-6.1 9.3-14 9.3-24.3v-7.2q0-9.1-2.7-15.5c-1.5-4.2-3.9-7.6-7.2-10.6-3.4-3-7.3-5.5-12.1-7.6-4.9-1.8-10.6-3.9-17-5.7l-46.6-13.4c-14.5-4.2-26-11.2-34.2-20.6-8.2-9.7-12.4-21.8-12.4-36.3v-8.2q0-13.2 4.5-23.6c3.1-7.3 7.6-13.3 13.1-18.5 5.4-5.1 12.1-9.1 19.6-11.8 7.3-2.7 15.8-4.3 24.8-4.3h77.2c4.8 0 7.6 2.8 7.6 7v11.8c0 4.3-3.1 7-7.6 7h-73.2q-18.2 0-28.2 9.1c-6.3 6-9.7 14.2-9.7 24.8v3.4c0 5.4 1 10.3 2.5 13.9 1.5 3.6 3.9 7 6.6 9.4 3 2.7 6.7 4.8 10.9 6.6 4.6 1.9 9.7 3.7 14.8 5.2l47.9 13.6c16.3 4.9 29 11.8 37.2 21.2 8.2 9.4 12.4 23.1 12.7 40zm402.5-165c0-4.4 3.5-8 8-8h12.1c4.4 0 8 3.6 8 8v226.1c0 4.4-3.6 8-8 8h-12.1c-4.5 0-8-3.6-8-8zm-138.3-0.4v227.5c0 4.2-2.7 6.9-7 6.9h-13.6c-4.8 0-7.6-2.7-7.6-6.9v-99.4c-0.3 0-0.6 0.3-1.2 0.3h-87.7v99.1c0 4.2-2.8 6.9-7 6.9h-13.6c-4.9 0-7.6-2.7-7.6-6.9v-227.5c0-4.9 3-7.6 7.6-7.6h13.6c4.2 0 7 3 7 7.6v103q0.4 0 0.9 0h87.1c0.3 0 0.9 0.3 1.2 0.3v-103.3c0-4.9 3.1-7.6 7.6-7.6h13.6c4.3 0 7 3 6.7 7.6zm415.8-0.3v12.1c0 4.8-2.7 7.6-7 7.6h-76.2v83.6h67.1c4 0 6.4 2.7 6.4 6.9v11.5c0 4.3-2.4 7-6.4 7h-67.1v99.1c0 4.2-2.8 6.9-7 6.9h-13.6c-4.9 0-7.6-2.7-7.6-6.9v-226.6c0-4.6 1.8-8.5 6.4-8.5h98c4.6 0 7 3 7 7.3z"/>
		<path id="Layer" fill-rule="evenodd" class="s0" d="m1376.6 66.7h12.8c1.5 0 2.7 1.2 2.7 2.7v175.1c0 1.5-1.2 2.7-2.7 2.7h-16.7c-1.5 0-2.7-1.2-2.7-2.7v-45.1c0-1.6-1.2-2.8-2.7-2.8h-78.1c-1.5 0-2.7-1.2-2.7-2.7v-12.7c0-0.6 0.3-0.9 0.6-1.5l87.1-112.1c0.3-0.6 1.2-0.9 2.4-0.9zm-58.7 110.2h49.1c1.5 0 2.7-1.2 2.7-2.7v-62.7c0-2.4-3.3-3.6-4.9-1.5l-49 62.7c-1.5 1.5-0.3 4.2 2.1 4.2z"/>
		<path id="Layer" fill-rule="evenodd" class="s1" d="m1355.5 315.7c-87.2 0-157.7-70.6-157.7-157.9 0-87.2 70.5-157.8 157.7-157.8 87.2 0 157.6 70.6 157.6 157.8 0 87.3-70.4 157.9-157.6 157.9zm135.2-157.9c0-74.9-60.4-135.4-135.2-135.4-74.8 0-135.3 60.5-135.3 135.4 0 74.9 60.5 135.4 135.3 135.4 74.8 0 135.2-60.5 135.2-135.4z"/>
	</g>
</svg>